PathFileType	4	(X/Y/Z)	/Users/itak/Documents/Research/Walk-IL/dataset/trc/00358_00011.trc
DataRate	CameraRate	NumFrames	NumMarkers	Units	OrigDataRate	OrigDataStartFrame	OrigNumFrames
100.000000	100.000000	4	53	mm	100.000000	0	586
Frame#	Time	RPSI			LPSI			L3			STRN			T10			C7			CLAV			RBAK			LBAK			LSHO			LUPA			LAEL			LAOL			LWTS			LWPS			LFRA			LIFD			LHPS			LHTS			RSHO			RUPA			RAEL			RAOL			RWTS			RWPS			RFRA			RIFD			RHTS			RHPS			RBHD			LFHD			RFHD			LBHD			LHIP			RHIP			RASI			LASI			LKNE			LTHI			LANK			LTIP			LTOE			LMT1			LMT5			LHEE			RKNE			RTHI			RANK			RTIP			RTOE			RMT1			RMT5			RHEE			
		X1	Y1	Z1	X2	Y2	Z2	X3	Y3	Z3	X4	Y4	Z4	X5	Y5	Z5	X6	Y6	Z6	X7	Y7	Z7	X8	Y8	Z8	X9	Y9	Z9	X10	Y10	Z10	X11	Y11	Z11	X12	Y12	Z12	X13	Y13	Z13	X14	Y14	Z14	X15	Y15	Z15	X16	Y16	Z16	X17	Y17	Z17	X18	Y18	Z18	X19	Y19	Z19	X20	Y20	Z20	X21	Y21	Z21	X22	Y22	Z22	X23	Y23	Z23	X24	Y24	Z24	X25	Y25	Z25	X26	Y26	Z26	X27	Y27	Z27	X28	Y28	Z28	X29	Y29	Z29	X30	Y30	Z30	X31	Y31	Z31	X32	Y32	Z32	X33	Y33	Z33	X34	Y34	Z34	X35	Y35	Z35	X36	Y36	Z36	X37	Y37	Z37	X38	Y38	Z38	X39	Y39	Z39	X40	Y40	Z40	X41	Y41	Z41	X42	Y42	Z42	X43	Y43	Z43	X44	Y44	Z44	X45	Y45	Z45	X46	Y46	Z46	X47	Y47	Z47	X48	Y48	Z48	X49	Y49	Z49	X50	Y50	Z50	X51	Y51	Z51	X52	Y52	Z52	X53	Y53	Z53	

1	0	-1348.622192382812	984.0443725585938	807.9664306640625	-1351.791625976562	983.5631103515625	679.5509643554688	-1349.095458984375	1038.028930664062	746.884765625	-1123.5595703125	1222.823120117188	729.5952758789062	-1360.322265625	1157.409545898438	733.8328857421875	-1321.942016601562	1406.05712890625	716.2688598632812	-1164.9384765625	1348.951904296875	723.3433837890625	-1368.857788085938	1267.648559570312	785.6096801757812	-1331.8818359375	1367.865112304688	614.18212890625	-1245.651977539062	1383.387084960938	559.1716918945312	-1263.110961914062	1262.6982421875	492.4350891113281	-1243.558471679688	1057.964233398438	483.9015197753906	-1307.0078125	1045.630493164062	538.5822143554688	-1149.9873046875	814.559814453125	531.2650146484375	-1189.356323242188	804.4583740234375	475.4254760742188	-1228.485961914062	953.732177734375	478.1390991210938	-1156.913452148438	647.7939453125	524.6221313476562	-1193.59765625	734.78515625	481.2886657714844	-1140.147338867188	735.9606323242188	515.9830322265625	-1265.389526367188	1395.46240234375	879.660888671875	-1277.788208007812	1332.9853515625	944.1251831054688	-1275.99658203125	1067.627075195312	994.9520263671875	-1311.618896484375	1056.85400390625	908.2310180664062	-1150.948974609375	846.8915405273438	954.2281494140625	-1185.909301757812	829.1989135742188	1020.021240234375	-1249.210205078125	1000.208557128906	1007.580688476562	-1126.193725585938	675.9161987304688	964.390625	-1113.652954101562	750.9276733398438	970.171875	-1163.44970703125	747.7591552734375	1019.039794921875	-1232.128784179688	1596.094848632812	826.553466796875	-1159.836547851562	1643.284545898438	637.5407104492188	-1110.55419921875	1636.283447265625	726.1289672851562	-1323.336303710938	1598.179565429688	714.96875	-1262.793090820312	923.33251953125	578.2352294921875	-1270.1337890625	929.4925537109375	916.5272216796875	-1163.996337890625	952.533935546875	871.1834106445312	-1144.860717773438	946.9228515625	632.313232421875	-1247.93896484375	469.9244995117188	566.5198974609375	-1234.331176757812	605.8119506835938	561.8331298828125	-1316.365356445312	50.50993728637695	553.7034301757812	-1285.341674804688	255.3760528564453	547.2776489257812	-1115.674438476562	45.7409553527832	628.6806640625	-1186.90185546875	36.45864105224609	663.5084228515625	-1188.41796875	45.83319091796875	550.2490844726562	-1355.96728515625	46.88131332397461	618.3325805664062	-1271.139038085938	468.097900390625	921.277587890625	-1208.390991210938	721.4293823242188	929.7364501953125	-1335.932006835938	51.38111877441406	933.5910034179688	-1271.305786132812	352.5326232910156	924.3668212890625	-1141.060302734375	46.33574676513672	887.8798217773438	-1194.878295898438	42.59041595458984	844.2869262695312	-1236.392456054688	38.62371444702148	955.3514404296875	-1384.983154296875	55.27019500732422	883.4192504882812	
2	0.01	-1348.67138671875	984.0228271484375	807.9354858398438	-1351.662475585938	983.5263671875	679.4923706054688	-1349.083251953125	1037.96142578125	746.8408813476562	-1123.584716796875	1222.885620117188	729.634765625	-1360.394287109375	1157.355590820312	733.7620239257812	-1322.1259765625	1405.98486328125	716.201171875	-1165.092895507812	1348.9931640625	723.3471069335938	-1369.015747070312	1267.597045898438	785.54052734375	-1331.939819335938	1367.78271484375	614.0512084960938	-1245.724365234375	1383.32373046875	559.0668334960938	-1263.058959960938	1262.680053710938	492.378662109375	-1243.340698242188	1057.943237304688	483.8797607421875	-1306.885864257812	1045.547241210938	538.5144653320312	-1149.698364257812	814.5962524414062	531.4415893554688	-1188.884155273438	804.4775390625	475.5020141601562	-1228.2060546875	953.796142578125	478.102294921875	-1156.70654296875	647.8346557617188	524.3897094726562	-1193.1748046875	734.7845458984375	481.3432006835938	-1139.66845703125	736.0375366210938	516.2122192382812	-1265.692504882812	1395.49658203125	879.6468505859375	-1278.01513671875	1332.969848632812	944.1198120117188	-1275.974365234375	1067.566528320312	994.8092041015625	-1311.618774414062	1056.824340820312	908.0623168945312	-1150.467163085938	847.1409912109375	953.6142578125	-1185.424438476562	829.224609375	1019.451538085938	-1249.066650390625	1000.184326171875	1007.292907714844	-1125.41943359375	676.2376098632812	963.5928344726562	-1113.078125	750.9985961914062	969.4414672851562	-1162.763061523438	747.791259765625	1018.293212890625	-1233.874755859375	1596.442749023438	826.08544921875	-1158.684936523438	1642.977783203125	638.119140625	-1110.707153320312	1636.107421875	727.4420166015625	-1323.454833984375	1598.525268554688	713.0730590820312	-1262.722534179688	923.35693359375	578.1778564453125	-1269.830078125	929.1354370117188	916.0905151367188	-1164.07958984375	952.5234375	871.3177490234375	-1144.897216796875	946.8370361328125	632.4280395507812	-1247.865478515625	469.8973083496094	566.5986328125	-1234.23828125	605.880126953125	561.8731079101562	-1316.357421875	50.5167350769043	553.7057495117188	-1285.28076171875	255.3991241455078	547.2562255859375	-1115.668823242188	45.73268508911133	628.6844482421875	-1186.948852539062	36.48423767089844	663.5257568359375	-1188.420288085938	45.83321380615234	550.2450561523438	-1355.965942382812	46.88101577758789	618.3325805664062	-1271.217407226562	468.0877380371094	921.3064575195312	-1208.652954101562	721.5047607421875	929.9066772460938	-1335.929565429688	51.37714767456055	933.5863647460938	-1271.3447265625	352.5310668945312	924.3941040039062	-1141.064697265625	46.34630584716797	887.8909912109375	-1194.88232421875	42.62105560302734	844.30126953125	-1236.37744140625	38.67024612426758	955.3272705078125	-1384.9833984375	55.25943756103516	883.4364013671875	
3	0.02	-1348.732543945312	983.999267578125	807.8959350585938	-1351.501708984375	983.478515625	679.4185180664062	-1349.063720703125	1037.873046875	746.780029296875	-1123.6337890625	1222.958251953125	729.686279296875	-1360.4853515625	1157.278686523438	733.675048828125	-1322.361328125	1405.8955078125	716.1004028320312	-1165.298706054688	1349.04296875	723.361328125	-1369.211303710938	1267.536743164062	785.46044921875	-1332.022094726562	1367.670166015625	613.8906860351562	-1245.814453125	1383.24072265625	558.944091796875	-1263.0009765625	1262.641479492188	492.3026428222656	-1243.081909179688	1057.9111328125	483.8447570800781	-1306.723876953125	1045.426879882812	538.4205932617188	-1149.328002929688	814.6497802734375	531.6632080078125	-1188.280029296875	804.477783203125	475.60888671875	-1227.8779296875	953.857666015625	478.0583801269531	-1156.432006835938	647.8831176757812	524.0772705078125	-1192.600830078125	734.7501220703125	481.4282531738281	-1139.0498046875	736.1361083984375	516.4771728515625	-1266.067749023438	1395.534301757812	879.617919921875	-1278.324829101562	1332.945678710938	944.0996704101562	-1275.947143554688	1067.497924804688	994.6237182617188	-1311.601806640625	1056.768798828125	907.8367919921875	-1149.937622070312	847.4209594726562	952.8558349609375	-1184.833862304688	829.2611694335938	1018.738342285156	-1248.884033203125	1000.146850585938	1006.906677246094	-1124.47900390625	676.5906372070312	962.608154296875	-1112.406005859375	751.0870971679688	968.5209350585938	-1161.954467773438	747.837890625	1017.354370117188	-1236.075927734375	1596.86572265625	825.456298828125	-1157.204345703125	1642.579345703125	638.908935546875	-1110.938720703125	1635.877197265625	729.1336059570312	-1323.529541015625	1598.93798828125	710.674072265625	-1262.628295898438	923.388916015625	578.105712890625	-1269.521484375	928.7487182617188	915.6217041015625	-1164.192749023438	952.5257568359375	871.4917602539062	-1144.94091796875	946.7335815429688	632.5648803710938	-1247.770263671875	469.8705444335938	566.69384765625	-1234.122924804688	605.9632568359375	561.916259765625	-1316.348999023438	50.52482223510742	553.707275390625	-1285.200073242188	255.4297637939453	547.2271118164062	-1115.661376953125	45.72247695922852	628.6902465820312	-1187.0068359375	36.51657104492188	663.547607421875	-1188.420166015625	45.84307861328125	550.2604370117188	-1355.96484375	46.88113021850586	618.33251953125	-1271.321166992188	468.0806579589844	921.3524780273438	-1208.962768554688	721.59912109375	930.1082153320312	-1335.929321289062	51.37888336181641	933.5623168945312	-1271.39111328125	352.5259399414062	924.4282836914062	-1141.074096679688	46.36394119262695	887.9061279296875	-1194.887329101562	42.66262054443359	844.321533203125	-1236.361328125	38.72431564331055	955.296142578125	-1385.009399414062	55.28389739990234	883.4187622070312	
4	0.03	-1348.802856445312	983.9758911132812	807.849853515625	-1351.31591796875	983.4202880859375	679.3311157226562	-1349.037109375	1037.766845703125	746.7032470703125	-1123.712036132812	1223.035400390625	729.7479248046875	-1360.589965820312	1157.178466796875	733.5755615234375	-1322.638061523438	1405.79296875	715.962890625	-1165.548583984375	1349.096435546875	723.3867797851562	-1369.435546875	1267.472290039062	785.373046875	-1332.12890625	1367.528198242188	613.7101440429688	-1245.9169921875	1383.140380859375	558.813232421875	-1262.942504882812	1262.576538085938	492.2064514160156	-1242.801391601562	1057.864624023438	483.79541015625	-1306.526977539062	1045.267700195312	538.302734375	-1148.886474609375	814.7205200195312	531.91748046875	-1187.5703125	804.4507446289062	475.741455078125	-1227.523559570312	953.90283203125	478.0132446289062	-1156.091186523438	647.9369506835938	523.7109985351562	-1191.884765625	734.6749267578125	481.5469055175781	-1138.314575195312	736.2512817382812	516.7521362304688	-1266.494506835938	1395.571655273438	879.5703735351562	-1278.711669921875	1332.913208007812	944.0597534179688	-1275.91650390625	1067.428344726562	994.39990234375	-1311.56298828125	1056.683227539062	907.5601196289062	-1149.411254882812	847.70361328125	951.9827270507812	-1184.171875	829.3109741210938	1017.911315917969	-1248.674194335938	1000.094970703125	1006.432006835938	-1123.434936523438	676.9342651367188	961.4865112304688	-1111.689697265625	751.1987915039062	967.4562377929688	-1161.085327148438	747.890380859375	1016.267395019531	-1238.653686523438	1597.346435546875	824.674072265625	-1155.438598632812	1642.099609375	639.9095458984375	-1111.258056640625	1635.598999023438	731.1546630859375	-1323.520385742188	1599.39111328125	707.861328125	-1262.511108398438	923.4265747070312	578.0206909179688	-1269.270141601562	928.3933715820312	915.1959228515625	-1164.332275390625	952.5490112304688	871.6974487304688	-1144.985229492188	946.6212768554688	632.7159423828125	-1247.656372070312	469.8485717773438	566.7997436523438	-1233.989990234375	606.0572509765625	561.9575805664062	-1316.3408203125	50.53356170654297	553.7081298828125	-1285.101928710938	255.4669189453125	547.1912841796875	-1115.65234375	45.71125411987305	628.6980590820312	-1187.069091796875	36.55189895629883	663.5719604492188	-1188.418212890625	45.86131286621094	550.2952270507812	-1355.964111328125	46.8818473815918	618.332275390625	-1271.44677734375	468.0804443359375	921.417724609375	-1209.298828125	721.707763671875	930.32861328125	-1335.932983398438	51.38968658447266	933.5082397460938	-1271.441772460938	352.5166931152344	924.4683837890625	-1141.090576171875	46.39107513427734	887.9243774414062	-1194.893432617188	42.71537017822266	844.3475952148438	-1236.346923828125	38.77920913696289	955.261474609375	-1385.072021484375	55.35905838012695	883.3506469726562	
